<svg version="1.1" id="Layer_1" xmlns="http://www.w3.org/2000/svg" xmlns:xlink="http://www.w3.org/1999/xlink" x="0px" y="0px"
	 width="100%" viewBox="0 0 157 171" enable-background="new 0 0 157 171" xml:space="preserve">
<path fill="#000000" opacity="1.000000" stroke="none" 
	d="
M1.000000,64.000000 
	C1.000000,42.666672 1.000000,21.833345 1.000000,1.000014 
	C53.333313,1.000009 105.666626,1.000009 157.999954,1.000005 
	C157.999969,57.999958 157.999969,114.999916 157.999985,171.999908 
	C105.666718,171.999939 53.333443,171.999939 1.000082,171.999969 
	C1.000000,136.166672 1.000000,100.333336 1.000000,64.000000 
M69.961601,14.939278 
	C69.961601,14.939278 69.926567,14.946556 69.285576,14.899875 
	C68.862495,14.953516 68.439423,15.007157 67.368744,15.278897 
	C65.558434,16.144276 63.748127,17.009655 61.492443,17.925411 
	C61.492443,17.925411 61.047295,17.977777 60.369457,17.892363 
	C59.845989,18.239159 59.322517,18.585957 58.052002,19.002323 
	C54.693600,20.316801 51.335197,21.631281 47.224377,22.949514 
	C45.148781,23.641613 43.073181,24.333710 40.349800,24.930008 
	C39.842926,25.259394 39.336052,25.588781 38.412502,25.979643 
	C38.412502,25.979643 37.994659,26.032598 37.347507,25.927624 
	C36.839687,26.256517 36.331863,26.585411 35.414528,26.961721 
	C35.414528,26.961721 35.004787,27.007151 34.345703,26.900814 
	C33.815411,27.225361 33.285122,27.549908 32.390522,27.906544 
	C32.390522,27.906544 32.028248,27.956648 31.349838,27.851667 
	C30.802553,28.181328 30.255270,28.510990 29.014452,29.011478 
	C26.348335,30.001686 23.682219,30.991892 20.375883,31.898899 
	C19.927780,32.269855 19.479677,32.640812 18.744759,33.565887 
	C18.481043,34.318768 18.217327,35.071648 17.224239,36.328835 
	C17.186907,53.197544 17.149572,70.066254 17.046736,87.625214 
	C17.361557,88.419472 17.676380,89.213737 18.036989,90.904701 
	C18.001942,100.223335 19.865229,109.050461 24.980179,117.781860 
	C26.953869,121.255173 28.927559,124.728485 31.106464,128.578217 
	C31.282299,128.812424 31.504049,128.988937 31.888937,129.816803 
	C35.934227,134.417999 39.547085,139.521133 44.144234,143.481781 
	C48.914200,147.591324 54.637115,150.594757 60.011436,154.037964 
	C60.011436,154.037964 59.934536,154.059647 60.278030,154.655930 
	C61.529259,155.652206 62.633869,157.045273 64.058685,157.571732 
	C68.678612,159.278732 73.415955,160.667969 78.730774,162.020004 
	C79.154572,161.956696 79.578362,161.893372 80.757401,162.003662 
	C84.580498,160.375916 88.403595,158.748154 92.594429,156.868958 
	C92.829704,156.668869 92.981026,156.418106 93.760559,156.006149 
	C96.863045,154.028854 99.965523,152.051559 103.012596,150.001801 
	C103.012596,150.001801 103.040489,150.088593 103.676682,150.068268 
	C104.181099,149.744217 104.685509,149.420151 105.585602,148.863510 
	C105.836609,148.661316 105.985970,148.400818 106.637978,147.774750 
	C108.765999,145.852844 110.894020,143.930923 113.458046,141.850800 
	C113.730263,141.684326 113.934944,141.457016 114.777374,141.103470 
	C117.702179,138.080063 121.129753,135.394394 123.438667,131.957275 
	C127.289185,126.225243 130.423645,120.012192 134.167694,113.420349 
	C135.732666,108.278427 137.297638,103.136505 138.953140,97.123169 
	C138.983215,93.071114 139.013290,89.019051 139.798401,84.553879 
	C139.784378,72.648605 139.770355,60.743332 139.925873,48.037476 
	C140.247406,45.360954 140.568939,42.684437 141.210632,39.404633 
	C142.605042,38.037060 143.848221,36.455883 145.421997,35.341652 
	C150.296417,31.890554 150.409546,31.507425 146.617523,26.195208 
	C145.114151,26.484922 143.566544,26.783159 141.364227,26.993233 
	C140.882828,27.312462 140.401413,27.631691 140.015457,27.950443 
	C140.015457,27.950443 140.011871,27.855068 139.156647,28.006512 
	C135.092010,28.369101 131.027390,28.731689 126.326416,28.750219 
	C123.551201,27.911301 120.775978,27.072382 117.602394,26.073584 
	C117.602394,26.073584 117.203537,25.914946 116.993828,25.377392 
	C116.654549,25.241276 116.315277,25.105162 115.215889,24.901432 
	C110.851181,23.589743 106.486473,22.278055 101.932014,20.478918 
	C101.628654,20.350266 101.325302,20.221613 100.502808,20.114689 
	C100.333511,20.151209 100.164207,20.187727 99.552032,20.070427 
	C99.552032,20.070427 99.101562,19.940533 98.771782,19.269482 
	C92.103279,16.885824 85.462563,14.417655 78.737190,12.207009 
	C77.694077,11.864134 76.263664,12.699482 74.348206,12.892822 
	C73.817184,13.221331 73.286156,13.549840 72.388969,13.911217 
	C72.388969,13.911217 72.024559,13.959807 71.371147,13.859043 
	C70.906265,14.208279 70.441383,14.557514 69.961601,14.939278 
z"/>
<path fill="#F5F9F6" opacity="1.000000" stroke="none" 
	d="
M126.962761,29.094282 
	C131.027390,28.731689 135.092010,28.369101 139.566406,28.291286 
	C112.043510,42.540665 93.941689,66.564461 75.737961,92.672073 
	C69.323250,85.403206 63.514519,78.821007 57.533695,72.043800 
	C52.443722,76.536469 48.294559,80.198730 43.929588,84.051468 
	C55.766239,96.428421 67.000694,108.175690 78.495201,120.194878 
	C82.256935,114.496071 85.672821,109.190079 89.218643,103.972397 
	C103.812531,82.497467 118.436409,61.039314 136.954224,42.622105 
	C138.049530,41.532753 139.568604,40.869473 140.890472,40.007919 
	C140.568939,42.684437 140.247406,45.360954 139.622849,48.413498 
	C139.319824,48.789524 138.963806,49.046635 138.633789,49.104500 
	C133.500641,54.760437 128.697525,60.358513 123.548340,66.207611 
	C123.159561,70.304100 123.116844,74.149574 122.981590,78.350739 
	C122.592621,80.805168 122.296196,82.903915 121.540497,84.937149 
	C119.921471,84.858734 118.761742,84.840813 117.601952,84.833733 
	C107.792244,84.773834 103.620850,88.531975 102.359955,98.450226 
	C101.785408,102.969711 101.080933,107.472672 100.467247,111.760536 
	C96.115288,112.647621 90.739082,107.768112 89.003929,115.300476 
	C92.295616,115.972366 95.452477,116.616737 99.171021,117.375763 
	C97.449249,121.530525 95.941063,125.169876 94.211884,129.041138 
	C92.828621,131.131256 91.666359,132.989487 90.230377,135.015717 
	C86.971161,137.221481 83.985664,139.259232 80.042709,141.950500 
	C80.042709,137.757431 79.908562,135.272568 80.077759,132.808548 
	C80.274979,129.936340 79.514725,128.102463 75.843277,128.132294 
	C75.843277,132.159546 75.843277,136.072983 75.843277,141.541550 
	C71.977325,138.885239 69.097633,136.906601 66.135231,134.654907 
	C65.766655,134.147461 65.480782,133.913071 65.192574,133.746643 
	C65.190239,133.814606 65.310211,133.750549 65.212654,133.416107 
	C62.575565,128.036224 60.036037,122.990784 57.276863,117.508972 
	C60.853664,116.671982 63.190968,116.125038 65.524651,115.578949 
	C63.977650,110.513908 60.262169,111.309952 56.580585,112.049759 
	C55.032810,107.415001 54.878296,102.136848 48.821793,99.455620 
	C49.607784,103.489601 50.189598,106.811371 50.918468,110.100555 
	C51.419090,112.359734 51.648010,114.382553 48.620300,115.235168 
	C48.405773,115.229538 48.126911,115.555817 47.742065,115.620438 
	C46.704964,116.075302 46.052708,116.465553 45.066269,116.877182 
	C44.065441,116.530014 43.118904,116.332146 42.774384,115.767166 
	C38.056915,108.030975 34.990227,99.727211 34.189777,90.377869 
	C36.567692,90.151947 38.732960,89.946228 42.526173,89.585838 
	C40.238880,87.827789 39.072510,86.931297 37.750854,85.731445 
	C36.733559,85.315079 35.871544,85.202080 34.705357,84.942154 
	C34.117462,84.193123 33.833748,83.591011 33.647766,82.532188 
	C33.727428,77.062538 33.709362,72.049606 33.813927,66.792511 
	C33.925983,66.366501 33.915417,66.184662 34.052231,65.660469 
	C35.779514,62.140965 37.359421,58.963802 39.321266,55.694237 
	C43.494019,57.401871 47.284821,59.201908 51.039162,61.416016 
	C50.662392,64.678650 50.322086,67.527222 49.981781,70.375793 
	C50.518997,70.617317 51.056213,70.858833 51.593430,71.100357 
	C53.304649,68.143600 55.015865,65.186844 56.790962,62.245346 
	C56.854843,62.260612 56.960075,62.181988 57.231941,62.181072 
	C57.663727,62.094875 57.823654,62.009590 58.351395,61.962189 
	C59.455631,62.056206 60.192059,62.112331 61.079620,62.492126 
	C62.817749,63.163342 64.404739,63.510899 66.420799,63.955360 
	C70.062119,64.432373 73.274368,64.812485 76.064346,65.142616 
	C76.064346,67.507553 76.064346,69.263496 75.972847,71.465408 
	C75.881348,75.200050 75.881348,78.488739 75.881348,81.777420 
	C76.207611,81.796768 76.533867,81.816124 76.860130,81.835472 
	C77.992401,80.042488 79.124680,78.249504 80.518219,76.102104 
	C80.779488,72.171356 80.779488,68.595032 80.779488,65.359886 
	C85.540848,63.525204 91.375519,65.814598 93.002014,59.050884 
	C91.895142,59.050884 90.946091,59.050884 89.744911,59.003590 
	C89.334297,59.020603 89.175827,59.084911 88.568214,59.104759 
	C85.717827,59.047020 83.316589,59.033745 80.922058,58.765923 
	C80.872849,58.351109 80.816925,58.190830 80.843994,57.651886 
	C80.873589,56.503914 80.820175,55.734600 80.853325,54.605286 
	C80.882782,53.511757 80.825676,52.778233 80.850914,51.601871 
	C80.877785,48.761089 80.822311,46.363144 80.852539,43.605156 
	C80.881149,42.511791 80.824043,41.778481 80.847427,40.705685 
	C80.867134,39.908863 80.806366,39.451527 80.828110,38.598812 
	C80.868942,37.130585 80.827255,36.057735 80.914040,34.769836 
	C81.094780,34.396183 81.147041,34.237576 81.511337,34.138294 
	C83.369446,34.843880 84.915512,35.490135 86.660568,36.430031 
	C90.731400,42.142612 94.603256,47.561558 98.455627,52.953232 
	C101.413940,50.096439 101.014099,46.497921 97.443329,42.880287 
	C96.347198,41.769768 95.902824,40.015938 95.159996,38.556694 
	C96.047707,38.403770 96.935417,38.250847 98.047821,38.361889 
	C101.513016,40.500645 104.753510,42.375439 107.902405,44.197231 
	C112.469627,40.367027 116.764061,36.765602 121.386261,33.080822 
	C123.463608,31.696405 125.213188,30.395346 126.962761,29.094282 
z"/>
<path fill="#529963" opacity="1.000000" stroke="none" 
	d="
M141.050552,39.706276 
	C139.568604,40.869473 138.049530,41.532753 136.954224,42.622105 
	C118.436409,61.039314 103.812531,82.497467 89.218643,103.972397 
	C85.672821,109.190079 82.256935,114.496071 78.495201,120.194878 
	C67.000694,108.175690 55.766239,96.428421 43.929588,84.051468 
	C48.294559,80.198730 52.443722,76.536469 57.533695,72.043800 
	C63.514519,78.821007 69.323250,85.403206 75.737961,92.672073 
	C93.941689,66.564461 112.043510,42.540665 139.994019,28.215565 
	C140.011871,27.855068 140.015457,27.950443 140.279221,28.115002 
	C141.034973,27.880173 141.526962,27.480785 142.018951,27.081398 
	C143.566544,26.783159 145.114151,26.484922 146.617523,26.195208 
	C150.409546,31.507425 150.296417,31.890554 145.421997,35.341652 
	C143.848221,36.455883 142.605042,38.037060 141.050552,39.706276 
z"/>
<path fill="#17476B" opacity="1.000000" stroke="none" 
	d="
M86.461586,36.136395 
	C84.915512,35.490135 83.369446,34.843880 81.208549,34.114689 
	C80.391449,34.023037 80.189163,34.014317 79.741562,34.099957 
	C78.338860,34.462440 77.181480,34.730568 75.819069,34.749588 
	C72.776253,36.070301 69.938454,37.640118 66.949295,38.895405 
	C65.198570,36.720837 63.599209,34.860798 62.246994,32.731636 
	C64.161217,31.638580 66.577873,31.244877 67.346664,29.905386 
	C69.218697,26.643686 70.781158,26.949480 73.662613,28.680157 
	C79.505081,32.189289 82.399422,30.313349 82.361855,23.500818 
	C78.800850,23.698448 75.270821,23.894358 70.878448,24.138126 
	C70.163719,23.573292 68.651474,22.378199 67.293175,21.304768 
	C61.425701,28.814875 53.192616,28.685513 44.752884,28.405178 
	C45.327259,29.774464 45.397449,30.336842 45.715374,30.635565 
	C47.770443,32.566536 49.646435,35.470718 52.043217,36.012810 
	C54.033691,36.463009 56.657856,34.111454 58.958813,33.369156 
	C58.620949,35.176968 58.325573,36.616661 58.019951,38.026604 
	C58.009701,37.996861 58.064777,38.027290 57.844776,38.122082 
	C57.343155,38.390846 57.138725,38.630642 56.788189,39.196373 
	C52.695560,42.300526 48.826233,45.144558 44.761459,48.076942 
	C44.317932,48.325554 44.135147,48.541164 43.799625,48.943001 
	C43.419350,49.123009 43.257103,49.172153 42.904991,48.920689 
	C42.104572,47.656483 41.494019,46.692894 41.029953,45.367607 
	C40.540379,44.428356 39.781475,43.260838 39.287102,43.363770 
	C33.858334,44.494118 33.103382,46.091396 34.411480,53.356918 
	C35.237858,52.475285 35.977924,51.685734 37.068863,50.946098 
	C40.815926,51.676292 39.396362,53.884125 38.939323,55.786644 
	C37.359421,58.963802 35.779514,62.140965 33.842079,65.780525 
	C33.232334,66.456375 33.042629,66.715584 32.609306,67.198792 
	C31.866543,68.917870 31.429913,70.458710 30.639439,71.959229 
	C28.555347,70.951668 26.390182,70.341393 25.219416,68.914948 
	C24.090107,67.539024 23.123060,64.970062 23.688751,63.576199 
	C24.201790,62.312061 26.875793,61.924934 29.746796,60.634285 
	C27.304022,57.837551 25.095196,55.308666 22.971994,52.877811 
	C21.267811,53.788647 20.134815,54.394199 19.000803,54.539097 
	C19.002651,50.384968 19.005516,46.691494 19.367226,42.997726 
	C20.689787,42.762886 21.653505,42.528332 22.617222,42.293777 
	C22.523684,41.914894 22.430143,41.536007 22.336605,41.157124 
	C21.227022,41.437901 20.117437,41.718674 19.005638,41.636845 
	C18.679537,40.188629 18.355656,39.103024 18.024563,37.651867 
	C17.996103,36.799057 17.974857,36.311790 17.953609,35.824528 
	C18.217327,35.071648 18.481043,34.318768 19.184723,33.263760 
	C20.088493,32.635120 20.552298,32.308609 21.016102,31.982098 
	C23.682219,30.991892 26.348335,30.001686 29.697166,28.956905 
	C30.929337,28.587105 31.478792,28.271875 32.028248,27.956646 
	C32.028248,27.956648 32.390522,27.906544 32.898121,27.912851 
	C33.938744,27.615156 34.471767,27.311155 35.004787,27.007153 
	C35.004787,27.007151 35.414528,26.961721 35.934578,26.948736 
	C36.967968,26.634699 37.481316,26.333649 37.994659,26.032598 
	C37.994659,26.032598 38.412502,25.979643 38.936325,25.958269 
	C39.972626,25.633198 40.485104,25.329502 40.997585,25.025806 
	C43.073181,24.333710 45.148781,23.641613 47.847618,23.230309 
	C52.839882,22.422405 57.221546,21.378376 61.551956,20.153204 
	C61.869968,20.063231 61.817856,18.665028 61.937820,17.875034 
	C63.748127,17.009655 65.558434,16.144276 67.843140,15.382730 
	C68.853882,15.306561 69.390228,15.126559 69.926567,14.946557 
	C69.926567,14.946556 69.961601,14.939278 70.273682,14.929245 
	C71.065369,14.599410 71.544960,14.279609 72.024559,13.959806 
	C72.024559,13.959807 72.388969,13.911217 72.899628,13.915487 
	C73.944313,13.609829 74.478340,13.299899 75.012360,12.989969 
	C76.263664,12.699482 77.694077,11.864134 78.737190,12.207009 
	C85.462563,14.417655 92.103279,16.885824 98.587288,19.762228 
	C93.432426,22.309271 92.783340,24.138359 95.275444,29.943344 
	C98.295135,27.257603 100.518425,24.461246 99.994896,20.224247 
	C100.164207,20.187727 100.333511,20.151209 100.889801,20.310896 
	C101.506050,20.756557 101.787704,20.909645 102.121765,20.966366 
	C106.486473,22.278055 110.851181,23.589743 115.740234,25.163300 
	C116.577560,25.588425 116.890549,25.751686 117.203537,25.914946 
	C117.203537,25.914946 117.602394,26.073584 117.890121,26.491653 
	C119.138054,28.994541 120.098274,31.079359 121.058487,33.164177 
	C116.764061,36.765602 112.469627,40.367027 107.902405,44.197231 
	C104.753510,42.375439 101.513016,40.500645 98.315536,38.152191 
	C97.053169,36.815022 95.779343,35.292290 94.435684,35.227940 
	C91.798203,35.101627 89.121849,35.786930 86.461586,36.136395 
M32.585964,34.091743 
	C27.659889,35.127964 27.659889,35.127964 27.870804,38.507545 
	C32.487171,38.507545 37.058254,38.507545 41.629333,38.507545 
	C41.809071,38.102249 41.988804,37.696953 42.168541,37.291656 
	C41.025856,36.536125 39.974163,35.493942 38.718201,35.095264 
	C37.024586,34.557671 35.173725,34.515427 32.585964,34.091743 
M111.269798,27.412521 
	C106.581047,27.409903 104.560738,30.301270 103.826057,34.638126 
	C105.666565,31.401159 112.284760,34.165417 111.269798,27.412521 
M89.105705,30.288961 
	C88.574150,30.477591 88.042595,30.666222 87.511040,30.854851 
	C87.635147,31.128384 87.759254,31.401917 87.883362,31.675446 
	C88.430542,31.355970 88.977715,31.036495 89.105705,30.288961 
z"/>
<path fill="#18486B" opacity="1.000000" stroke="none" 
	d="
M66.217934,134.927948 
	C69.097633,136.906601 71.977325,138.885239 75.843277,141.541550 
	C75.843277,136.072983 75.843277,132.159546 75.843277,128.132294 
	C79.514725,128.102463 80.274979,129.936340 80.077759,132.808548 
	C79.908562,135.272568 80.042709,137.757431 80.042709,141.950500 
	C83.985664,139.259232 86.971161,137.221481 90.634285,135.055420 
	C98.210449,137.083649 102.674782,141.964310 106.033699,148.082047 
	C105.985970,148.400818 105.836609,148.661316 105.065262,148.972839 
	C104.043442,149.417648 103.541962,149.753113 103.040482,150.088593 
	C103.040489,150.088593 103.012596,150.001801 102.667847,150.019379 
	C99.896881,150.643234 97.679070,151.110550 96.183151,148.097870 
	C95.846878,147.420670 93.635162,147.674683 92.286819,147.500015 
	C92.182846,148.644012 91.892632,149.808868 92.017876,150.927200 
	C92.213470,152.673584 92.690567,154.388474 93.048393,156.116699 
	C92.981026,156.418106 92.829704,156.668869 91.985336,156.961121 
	C87.584885,158.645554 83.793526,160.237808 80.002159,161.830063 
	C79.578362,161.893372 79.154572,161.956696 78.210510,161.799850 
	C75.380615,160.353409 73.149529,158.936249 70.742790,157.945938 
	C67.205856,156.490555 63.543472,155.340042 59.934536,154.059647 
	C59.934536,154.059647 60.011436,154.037964 59.960648,153.702087 
	C57.763660,151.554443 55.673573,149.670410 53.457195,147.948959 
	C50.620113,145.745407 47.681286,143.672836 44.850830,141.591263 
	C47.391113,139.407669 48.966221,137.807129 50.783077,136.558289 
	C52.777012,135.187698 54.993759,134.141281 57.334412,132.969238 
	C57.555401,132.984848 57.998325,132.993698 58.284233,133.280029 
	C60.816833,133.627762 63.063522,133.689148 65.310211,133.750549 
	C65.310211,133.750549 65.190239,133.814606 65.252014,134.032898 
	C65.615181,134.476776 65.916557,134.702362 66.217934,134.927948 
z"/>
<path fill="#17476B" opacity="1.000000" stroke="none" 
	d="
M48.126911,115.555817 
	C48.126911,115.555817 48.405773,115.229538 48.658398,115.721054 
	C48.940235,117.509781 48.969448,118.807007 48.850990,120.189613 
	C48.703316,120.275002 48.374313,120.184723 47.968044,120.136887 
	C44.261723,121.969276 40.960560,123.847557 37.662045,125.730461 
	C35.696453,126.852478 33.735020,127.981766 31.771717,129.107788 
	C31.504049,128.988937 31.282299,128.812424 31.034218,127.930054 
	C31.135775,124.088882 31.309574,120.895866 31.517345,117.078743 
	C29.263750,117.078743 27.038801,117.078743 24.813850,117.078743 
	C19.865229,109.050461 18.001942,100.223335 18.290936,90.203934 
	C18.698498,88.002007 18.852114,86.500847 19.388502,84.999100 
	C21.242189,84.216362 22.905163,83.659500 24.143127,82.604118 
	C26.551880,80.550606 28.722324,78.217575 30.993315,76.419998 
	C31.763391,78.924057 29.080612,82.442276 33.550034,82.988899 
	C33.833748,83.591011 34.117462,84.193123 34.917381,85.178894 
	C36.257767,85.719971 37.081955,85.877388 37.906143,86.034805 
	C39.072510,86.931297 40.238880,87.827789 42.526173,89.585838 
	C38.732960,89.946228 36.567692,90.151947 34.189777,90.377869 
	C34.990227,99.727211 38.056915,108.030975 42.774384,115.767166 
	C43.118904,116.332146 44.065441,116.530014 45.477036,116.884186 
	C46.856964,116.431801 47.491936,115.993813 48.126911,115.555817 
z"/>
<path fill="#18486B" opacity="1.000000" stroke="none" 
	d="
M121.999771,85.002655 
	C122.296196,82.903915 122.592621,80.805168 123.349243,78.265137 
	C124.209175,75.885178 124.608894,73.946518 125.419853,72.005547 
	C129.369965,72.165695 131.477020,71.551582 130.774078,66.930145 
	C130.514999,65.226746 133.302353,63.059959 134.700211,61.104523 
	C135.466232,62.780258 136.853973,64.441055 136.894653,66.134209 
	C137.113770,75.255302 136.914200,84.385963 137.082001,93.509232 
	C137.109695,95.014755 138.241211,96.499985 138.862610,97.994591 
	C137.297638,103.136505 135.732666,108.278427 133.679260,113.780441 
	C129.496017,117.654404 127.382088,117.603813 125.300468,114.527885 
	C123.455498,111.801643 121.033554,109.465851 118.904358,106.574280 
	C119.654495,103.824646 120.718094,101.498009 120.989998,99.082253 
	C121.332550,96.038757 121.028404,92.922470 120.754379,89.606064 
	C119.728020,88.705879 118.950562,88.037216 118.173096,87.368561 
	C119.448662,86.579933 120.724213,85.791298 121.999771,85.002655 
z"/>
<path fill="#18486B" opacity="1.000000" stroke="none" 
	d="
M114.072083,141.168900 
	C113.934944,141.457016 113.730263,141.684326 112.854004,141.925949 
	C109.771812,140.641876 107.395927,139.027222 104.791122,137.984299 
	C101.035629,136.480652 100.313133,134.099289 102.033691,130.367523 
	C104.229446,127.954887 106.406662,125.930435 108.208725,123.614113 
	C108.687546,122.998650 108.014595,121.487144 107.932205,119.998535 
	C109.104797,118.689270 110.215668,117.768524 111.617020,116.866180 
	C112.478874,116.866280 113.050232,116.847961 113.988937,116.834778 
	C115.508408,115.893120 116.660538,114.946312 117.832016,113.983612 
	C120.597031,117.875847 123.143517,121.460472 126.370514,126.003036 
	C122.969017,128.864044 119.503860,131.778595 116.038696,134.693161 
	C115.815544,134.426682 115.592384,134.160202 115.369225,133.893723 
	C114.936844,136.318787 114.504463,138.743835 114.072083,141.168900 
z"/>
<path fill="#184768" opacity="1.000000" stroke="none" 
	d="
M31.830326,129.462296 
	C33.735020,127.981766 35.696453,126.852478 37.662045,125.730461 
	C40.960560,123.847557 44.261723,121.969276 47.829037,120.415970 
	C48.778294,122.479912 49.460293,124.216934 49.733711,125.966667 
	C44.282501,125.392944 41.980839,129.681747 38.707264,132.151688 
	C38.278042,132.475555 38.698784,134.580399 39.303761,135.465256 
	C40.185474,136.754868 41.591492,137.686005 43.740032,139.655533 
	C46.319798,135.136673 48.682755,130.997604 51.349747,126.998718 
	C53.473663,129.077148 55.293541,131.015381 57.113419,132.953613 
	C54.993759,134.141281 52.777012,135.187698 50.783077,136.558289 
	C48.966221,137.807129 47.391113,139.407669 44.850830,141.591263 
	C47.681286,143.672836 50.620113,145.745407 53.457195,147.948959 
	C55.673573,149.670410 57.763660,151.554443 59.926567,153.724091 
	C54.637115,150.594757 48.914200,147.591324 44.144234,143.481781 
	C39.547085,139.521133 35.934227,134.417999 31.830326,129.462296 
z"/>
<path fill="#124466" opacity="1.000000" stroke="none" 
	d="
M138.907867,97.558884 
	C138.241211,96.499985 137.109695,95.014755 137.082001,93.509232 
	C136.914200,84.385963 137.113770,75.255302 136.894653,66.134209 
	C136.853973,64.441055 135.466232,62.780258 134.700211,61.104523 
	C133.302353,63.059959 130.514999,65.226746 130.774078,66.930145 
	C131.477020,71.551582 129.369965,72.165695 125.416962,71.595314 
	C124.633362,69.443787 124.263885,67.700180 123.894409,65.956589 
	C128.697525,60.358513 133.500641,54.760437 138.644089,49.569939 
	C139.004059,61.640675 139.023712,73.303833 139.043365,84.966995 
	C139.013290,89.019051 138.983215,93.071114 138.907867,97.558884 
z"/>
<path fill="#184768" opacity="1.000000" stroke="none" 
	d="
M114.424728,141.136185 
	C114.504463,138.743835 114.936844,136.318787 115.369225,133.893723 
	C115.592384,134.160202 115.815544,134.426682 116.038696,134.693161 
	C119.503860,131.778595 122.969017,128.864044 126.370514,126.003036 
	C123.143517,121.460472 120.597031,117.875847 117.832016,113.983612 
	C116.660538,114.946312 115.508408,115.893120 114.102203,116.494759 
	C115.520851,113.085625 117.193581,110.021667 118.866310,106.957703 
	C121.033554,109.465851 123.455498,111.801643 125.300468,114.527885 
	C127.382088,117.603813 129.496017,117.654404 133.525208,114.071091 
	C130.423645,120.012192 127.289185,126.225243 123.438667,131.957275 
	C121.129753,135.394394 117.702179,138.080063 114.424728,141.136185 
z"/>
<path fill="#184768" opacity="1.000000" stroke="none" 
	d="
M101.874641,130.646393 
	C100.313133,134.099289 101.035629,136.480652 104.791122,137.984299 
	C107.395927,139.027222 109.771812,140.641876 112.636002,142.005066 
	C110.894020,143.930923 108.765999,145.852844 106.335838,147.928406 
	C102.674782,141.964310 98.210449,137.083649 90.908005,134.887421 
	C91.666359,132.989487 92.828621,131.131256 94.621819,129.087097 
	C96.500565,129.263794 97.748367,129.626434 99.073128,130.340195 
	C100.058266,130.676331 100.966454,130.661362 101.874641,130.646393 
z"/>
<path fill="#0E3F62" opacity="1.000000" stroke="none" 
	d="
M19.005730,84.999695 
	C18.852114,86.500847 18.698498,88.002007 18.268042,89.755577 
	C17.676380,89.213737 17.361557,88.419472 17.356750,86.980469 
	C17.788435,70.229622 17.910105,54.123516 18.031775,38.017414 
	C18.355656,39.103024 18.679537,40.188629 19.004345,41.886497 
	C19.005272,42.498753 19.008379,42.998016 19.008381,42.998016 
	C19.005516,46.691494 19.002651,50.384968 18.999641,55.007790 
	C19.001575,65.624657 19.003651,75.312172 19.005730,84.999695 
z"/>
<path fill="#184768" opacity="1.000000" stroke="none" 
	d="
M93.404480,156.061432 
	C92.690567,154.388474 92.213470,152.673584 92.017876,150.927200 
	C91.892632,149.808868 92.182846,148.644012 92.286819,147.500015 
	C93.635162,147.674683 95.846878,147.420670 96.183151,148.097870 
	C97.679070,151.110550 99.896881,150.643234 102.695549,150.055603 
	C99.965523,152.051559 96.863045,154.028854 93.404480,156.061432 
z"/>
<path fill="#2F5068" opacity="1.000000" stroke="none" 
	d="
M18.024563,37.651867 
	C17.910105,54.123516 17.788435,70.229622 17.389502,86.635345 
	C17.149572,70.066254 17.186907,53.197544 17.588924,36.076683 
	C17.974857,36.311790 17.996103,36.799057 18.024563,37.651867 
z"/>
<path fill="#184768" opacity="1.000000" stroke="none" 
	d="
M24.897015,117.430298 
	C27.038801,117.078743 29.263750,117.078743 31.517345,117.078743 
	C31.309574,120.895866 31.135775,124.088882 30.931610,127.741844 
	C28.927559,124.728485 26.953869,121.255173 24.897015,117.430298 
z"/>
<path fill="#19496C" opacity="1.000000" stroke="none" 
	d="
M99.773468,20.147337 
	C100.518425,24.461246 98.295135,27.257603 95.275444,29.943344 
	C92.783340,24.138359 93.432426,22.309271 98.752182,20.097754 
	C99.101562,19.940533 99.552032,20.070427 99.773468,20.147337 
z"/>
<path fill="#184768" opacity="1.000000" stroke="none" 
	d="
M60.106285,154.357788 
	C63.543472,155.340042 67.205856,156.490555 70.742790,157.945938 
	C73.149529,158.936249 75.380615,160.353409 77.899170,161.879639 
	C73.415955,160.667969 68.678612,159.278732 64.058685,157.571732 
	C62.633869,157.045273 61.529259,155.652206 60.106285,154.357788 
z"/>
<path fill="#7993A4" opacity="1.000000" stroke="none" 
	d="
M139.420883,84.760437 
	C139.023712,73.303833 139.004059,61.640675 138.974121,49.512074 
	C138.963806,49.046635 139.319824,48.789524 139.538086,48.813789 
	C139.770355,60.743332 139.784378,72.648605 139.420883,84.760437 
z"/>
<path fill="#114061" opacity="1.000000" stroke="none" 
	d="
M61.715134,17.900223 
	C61.817856,18.665028 61.869968,20.063231 61.551956,20.153204 
	C57.221546,21.378376 52.839882,22.422405 48.223827,23.228432 
	C51.335197,21.631281 54.693600,20.316801 58.756897,18.983532 
	C59.990292,18.635754 60.518791,18.306765 61.047295,17.977776 
	C61.047295,17.977777 61.492443,17.925411 61.715134,17.900223 
z"/>
<path fill="#194563" opacity="1.000000" stroke="none" 
	d="
M121.386261,33.080822 
	C120.098274,31.079359 119.138054,28.994541 118.089302,26.571592 
	C120.775978,27.072382 123.551201,27.911301 126.644592,28.922253 
	C125.213188,30.395346 123.463608,31.696405 121.386261,33.080822 
z"/>
<path fill="#184768" opacity="1.000000" stroke="none" 
	d="
M80.379776,161.916870 
	C83.793526,160.237808 87.584885,158.645554 91.801468,157.086853 
	C88.403595,158.748154 84.580498,160.375916 80.379776,161.916870 
z"/>
<path fill="#19496C" opacity="1.000000" stroke="none" 
	d="
M40.673691,24.977907 
	C40.485104,25.329502 39.972626,25.633198 39.144661,25.927532 
	C39.336052,25.588781 39.842926,25.259394 40.673691,24.977907 
z"/>
<path fill="#19496C" opacity="1.000000" stroke="none" 
	d="
M37.671082,25.980110 
	C37.481316,26.333649 36.967968,26.634699 36.139336,26.925026 
	C36.331863,26.585411 36.839687,26.256517 37.671082,25.980110 
z"/>
<path fill="#19496C" opacity="1.000000" stroke="none" 
	d="
M34.675247,26.953983 
	C34.471767,27.311155 33.938744,27.615156 33.080276,27.896809 
	C33.285122,27.549908 33.815411,27.225361 34.675247,26.953983 
z"/>
<path fill="#19496C" opacity="1.000000" stroke="none" 
	d="
M60.708374,17.935070 
	C60.518791,18.306765 59.990292,18.635754 59.130417,18.948750 
	C59.322517,18.585957 59.845989,18.239159 60.708374,17.935070 
z"/>
<path fill="#184768" opacity="1.000000" stroke="none" 
	d="
M103.358582,150.078430 
	C103.541962,149.753113 104.043442,149.417648 104.867416,149.089142 
	C104.685509,149.420151 104.181099,149.744217 103.358582,150.078430 
z"/>
<path fill="#19496C" opacity="1.000000" stroke="none" 
	d="
M69.606071,14.923216 
	C69.390228,15.126559 68.853882,15.306561 68.166946,15.273680 
	C68.439423,15.007157 68.862495,14.953516 69.606071,14.923216 
z"/>
<path fill="#19496C" opacity="1.000000" stroke="none" 
	d="
M71.697853,13.909425 
	C71.544960,14.279609 71.065369,14.599410 70.281136,14.912981 
	C70.441383,14.557514 70.906265,14.208279 71.697853,13.909425 
z"/>
<path fill="#F5F9F6" opacity="1.000000" stroke="none" 
	d="
M141.691589,27.037315 
	C141.526962,27.480785 141.034973,27.880173 140.231506,28.115242 
	C140.401413,27.631691 140.882828,27.312462 141.691589,27.037315 
z"/>
<path fill="#19496C" opacity="1.000000" stroke="none" 
	d="
M31.689043,27.904156 
	C31.478792,28.271875 30.929337,28.587105 30.043934,28.871492 
	C30.255270,28.510990 30.802553,28.181328 31.689043,27.904156 
z"/>
<path fill="#19496C" opacity="1.000000" stroke="none" 
	d="
M74.680283,12.941397 
	C74.478340,13.299899 73.944313,13.609829 73.082718,13.899054 
	C73.286156,13.549840 73.817184,13.221331 74.680283,12.941397 
z"/>
<path fill="#19496C" opacity="1.000000" stroke="none" 
	d="
M20.695992,31.940498 
	C20.552298,32.308609 20.088493,32.635120 19.328133,32.986702 
	C19.479677,32.640812 19.927780,32.269855 20.695992,31.940498 
z"/>
<path fill="#194563" opacity="1.000000" stroke="none" 
	d="
M117.098679,25.646168 
	C116.890549,25.751686 116.577560,25.588425 116.120285,25.197105 
	C116.315277,25.105162 116.654549,25.241276 117.098679,25.646168 
z"/>
<path fill="#19496C" opacity="1.000000" stroke="none" 
	d="
M102.026886,20.722641 
	C101.787704,20.909645 101.506050,20.756557 101.149368,20.300032 
	C101.325302,20.221613 101.628654,20.350266 102.026886,20.722641 
z"/>
<path fill="#1B4A6B" opacity="1.000000" stroke="none" 
	d="
M98.996170,129.989090 
	C97.748367,129.626434 96.500565,129.263794 94.842819,128.855194 
	C95.941063,125.169876 97.449249,121.530525 99.171021,117.375763 
	C95.452477,116.616737 92.295616,115.972366 89.003929,115.300476 
	C90.739082,107.768112 96.115288,112.647621 100.467247,111.760536 
	C101.080933,107.472672 101.785408,102.969711 102.359955,98.450226 
	C103.620850,88.531975 107.792244,84.773834 117.601952,84.833733 
	C118.761742,84.840813 119.921471,84.858734 121.540497,84.937149 
	C120.724213,85.791298 119.448662,86.579933 118.173096,87.368561 
	C118.950562,88.037216 119.728020,88.705879 120.297264,89.700150 
	C116.155556,90.025749 112.222069,90.025749 108.535202,90.025749 
	C107.502464,98.399010 106.553848,106.090195 105.608383,113.755836 
	C107.570686,114.816902 109.448616,115.832336 111.326538,116.847778 
	C110.215668,117.768524 109.104797,118.689270 107.583260,119.921249 
	C104.894592,119.046982 103.507309,119.198196 102.663239,122.147614 
	C101.879288,124.886902 100.252098,127.384865 98.996170,129.989090 
z"/>
<path fill="#184768" opacity="1.000000" stroke="none" 
	d="
M48.998657,120.104225 
	C48.969448,118.807007 48.940235,117.509781 48.872925,115.726677 
	C51.648010,114.382553 51.419090,112.359734 50.918468,110.100555 
	C50.189598,106.811371 49.607784,103.489601 48.821793,99.455620 
	C54.878296,102.136848 55.032810,107.415001 56.580585,112.049759 
	C60.262169,111.309952 63.977650,110.513908 65.524651,115.578949 
	C63.190968,116.125038 60.853664,116.671982 57.276863,117.508972 
	C60.036037,122.990784 62.575565,128.036224 65.212654,133.416092 
	C63.063522,133.689148 60.816833,133.627762 58.332272,132.900055 
	C56.373291,127.969078 54.652180,123.704414 52.898987,119.360245 
	C51.495872,119.627884 50.247265,119.866058 48.998657,120.104225 
z"/>
<path fill="#15486C" opacity="1.000000" stroke="none" 
	d="
M76.064346,71.019440 
	C76.064346,69.263496 76.064346,67.507553 76.064346,65.142616 
	C73.274368,64.812485 70.062119,64.432373 66.464523,63.630512 
	C66.739479,62.087933 67.399788,60.967106 68.488556,59.891136 
	C70.926018,59.915443 72.935028,59.894897 75.099411,60.108448 
	C75.663612,60.351761 76.072418,60.360981 76.481232,60.370201 
	C76.253952,59.881783 76.026672,59.393364 75.839157,58.540173 
	C75.953941,57.449619 76.028954,56.723839 76.342575,56.181755 
	C77.056931,56.260952 77.949013,56.154041 77.948425,56.052288 
	C77.924614,51.924572 78.375175,47.683033 77.555801,43.705120 
	C76.863693,40.345028 78.193802,39.554916 80.745590,38.994186 
	C80.806366,39.451527 80.867134,39.908863 80.645981,40.903183 
	C80.498322,42.281841 80.632576,43.123524 80.766838,43.965202 
	C80.822311,46.363144 80.877785,48.761089 80.649124,51.799187 
	C80.498909,53.281326 80.632835,54.123310 80.766762,54.965290 
	C80.820175,55.734600 80.873589,56.503914 80.715469,57.763721 
	C80.641090,58.509632 80.778221,58.765049 80.915352,59.020466 
	C83.316589,59.033745 85.717827,59.047020 88.671005,59.245430 
	C89.480972,59.304008 89.739006,59.177444 89.997047,59.050880 
	C90.946091,59.050884 91.895142,59.050884 93.002014,59.050884 
	C91.375519,65.814598 85.540848,63.525204 80.779488,65.359886 
	C80.779488,68.595032 80.779488,72.171356 80.362411,75.777992 
	C78.651672,74.212013 77.358009,72.615730 76.064346,71.019440 
z"/>
<path fill="#1B4A6A" opacity="1.000000" stroke="none" 
	d="
M39.321266,55.694237 
	C39.396362,53.884125 40.815926,51.676292 37.179535,50.627411 
	C38.254047,48.748970 39.568756,47.239140 40.883469,45.729305 
	C41.494019,46.692894 42.104572,47.656483 42.910919,49.270508 
	C45.740658,51.655510 48.374603,53.390079 51.073792,55.272781 
	C51.139038,55.420914 51.539242,55.626141 51.539242,55.626141 
	C51.539242,55.626141 51.947639,55.415367 52.287937,55.347038 
	C53.011513,55.019375 53.394794,54.760033 53.830536,54.931145 
	C54.270779,57.561363 54.658562,59.761127 54.701859,61.944420 
	C53.263454,61.619278 52.169540,61.310612 51.075626,61.001945 
	C47.284821,59.201908 43.494019,57.401871 39.321266,55.694237 
z"/>
<path fill="#124365" opacity="1.000000" stroke="none" 
	d="
M86.660568,36.430031 
	C89.121849,35.786930 91.798203,35.101627 94.435684,35.227940 
	C95.779343,35.292290 97.053169,36.815022 98.090843,37.888229 
	C96.935417,38.250847 96.047707,38.403770 95.159996,38.556694 
	C95.902824,40.015938 96.347198,41.769768 97.443329,42.880287 
	C101.014099,46.497921 101.413940,50.096439 98.455627,52.953232 
	C94.603256,47.561558 90.731400,42.142612 86.660568,36.430031 
z"/>
<path fill="#0F4061" opacity="1.000000" stroke="none" 
	d="
M80.828110,38.598812 
	C78.193802,39.554916 76.863693,40.345028 77.555801,43.705120 
	C78.375175,47.683033 77.924614,51.924572 77.948425,56.052288 
	C77.949013,56.154041 77.056931,56.260952 76.258713,55.719696 
	C75.965530,48.382187 75.994812,41.690437 76.024094,34.998692 
	C77.181480,34.730568 78.338860,34.462440 79.823380,34.301582 
	C80.296783,34.672974 80.508461,34.864983 80.785568,34.984882 
	C80.827255,36.057735 80.868942,37.130585 80.828110,38.598812 
z"/>
<path fill="#235475" opacity="1.000000" stroke="none" 
	d="
M55.046345,61.960896 
	C54.658562,59.761127 54.270779,57.561363 53.806023,54.775425 
	C53.729050,54.189255 53.984734,54.004620 54.395565,54.007500 
	C56.175236,54.003719 57.544075,53.997055 58.916763,54.388985 
	C59.953232,55.925087 60.985851,57.062599 61.969070,58.541798 
	C61.589272,59.978477 61.258877,61.073471 60.928482,62.168461 
	C60.192059,62.112331 59.455631,62.056206 58.231766,61.809456 
	C57.482906,61.806553 57.221489,61.994267 56.960075,62.181984 
	C56.960075,62.181988 56.854843,62.260612 56.370842,62.173065 
	C55.606674,62.043980 55.326508,62.002438 55.046345,61.960896 
z"/>
<path fill="#0C4065" opacity="1.000000" stroke="none" 
	d="
M33.647766,82.532188 
	C29.080612,82.442276 31.763391,78.924057 30.995842,76.019913 
	C30.995449,74.133286 30.994366,73.066414 30.993282,71.999542 
	C31.429913,70.458710 31.866543,68.917870 32.803413,67.219093 
	C33.303658,67.061150 33.691296,67.036667 33.691296,67.036667 
	C33.709362,72.049606 33.727428,77.062538 33.647766,82.532188 
z"/>
<path fill="#1F4967" opacity="1.000000" stroke="none" 
	d="
M54.701859,61.944420 
	C55.326508,62.002438 55.606674,62.043980 56.306961,62.157803 
	C55.015865,65.186844 53.304649,68.143600 51.593430,71.100357 
	C51.056213,70.858833 50.518997,70.617317 49.981781,70.375793 
	C50.322086,67.527222 50.662392,64.678650 51.039162,61.416012 
	C52.169540,61.310612 53.263454,61.619278 54.701859,61.944420 
z"/>
<path fill="#0F4061" opacity="1.000000" stroke="none" 
	d="
M61.079620,62.492126 
	C61.258877,61.073471 61.589272,59.978477 62.332794,58.521538 
	C64.517311,58.721817 66.288696,59.284046 68.060089,59.846279 
	C67.399788,60.967106 66.739479,62.087933 66.035446,63.533607 
	C64.404739,63.510899 62.817749,63.163342 61.079620,62.492126 
z"/>
<path fill="#17415F" opacity="1.000000" stroke="none" 
	d="
M75.972847,71.465408 
	C77.358009,72.615730 78.651672,74.212013 80.101151,76.132408 
	C79.124680,78.249504 77.992401,80.042488 76.860130,81.835472 
	C76.533867,81.816124 76.207611,81.796768 75.881348,81.777420 
	C75.881348,78.488739 75.881348,75.200050 75.972847,71.465408 
z"/>
<path fill="#0F4165" opacity="1.000000" stroke="none" 
	d="
M123.548340,66.207603 
	C124.263885,67.700180 124.633362,69.443787 125.005730,71.597618 
	C124.608894,73.946518 124.209175,75.885178 123.441788,77.909447 
	C123.116844,74.149574 123.159561,70.304100 123.548340,66.207603 
z"/>
<path fill="#19496C" opacity="1.000000" stroke="none" 
	d="
M80.853325,54.605286 
	C80.632835,54.123310 80.498909,53.281326 80.566772,52.242027 
	C80.825676,52.778233 80.882782,53.511757 80.853325,54.605286 
z"/>
<path fill="#285473" opacity="1.000000" stroke="none" 
	d="
M37.750854,85.731445 
	C37.081955,85.877388 36.257767,85.719971 35.221558,85.325821 
	C35.871544,85.202080 36.733559,85.315079 37.750854,85.731445 
z"/>
<path fill="#19496C" opacity="1.000000" stroke="none" 
	d="
M80.852539,43.605156 
	C80.632576,43.123524 80.498322,42.281841 80.565498,41.242664 
	C80.824043,41.778481 80.881149,42.511791 80.852539,43.605156 
z"/>
<path fill="#184768" opacity="1.000000" stroke="none" 
	d="
M47.742065,115.620438 
	C47.491936,115.993813 46.856964,116.431801 45.811218,116.862793 
	C46.052708,116.465553 46.704964,116.075302 47.742065,115.620438 
z"/>
<path fill="#19496C" opacity="1.000000" stroke="none" 
	d="
M80.914032,34.769836 
	C80.508461,34.864983 80.296783,34.672974 80.068695,34.207226 
	C80.189163,34.014317 80.391449,34.023037 80.896515,34.055359 
	C81.147041,34.237576 81.094780,34.396183 80.914032,34.769836 
z"/>
<path fill="#285473" opacity="1.000000" stroke="none" 
	d="
M33.813927,66.792511 
	C33.691296,67.036667 33.303658,67.061150 33.109550,67.040848 
	C33.042629,66.715584 33.232334,66.456375 33.694698,66.122871 
	C33.915417,66.184662 33.925983,66.366501 33.813927,66.792511 
z"/>
<path fill="#184768" opacity="1.000000" stroke="none" 
	d="
M66.135231,134.654907 
	C65.916557,134.702362 65.615181,134.476776 65.254349,133.964935 
	C65.480782,133.913071 65.766655,134.147461 66.135231,134.654907 
z"/>
<path fill="#1B4A6A" opacity="1.000000" stroke="none" 
	d="
M57.231937,62.181068 
	C57.221489,61.994267 57.482906,61.806553 57.863953,61.771568 
	C57.823654,62.009590 57.663727,62.094875 57.231937,62.181068 
z"/>
<path fill="#19496C" opacity="1.000000" stroke="none" 
	d="
M89.744911,59.003586 
	C89.739006,59.177444 89.480972,59.304008 89.120148,59.289894 
	C89.175827,59.084911 89.334297,59.020603 89.744911,59.003586 
z"/>
<path fill="#19496C" opacity="1.000000" stroke="none" 
	d="
M80.922058,58.765923 
	C80.778221,58.765049 80.641090,58.509632 80.632477,58.142387 
	C80.816925,58.190830 80.872849,58.351109 80.922058,58.765923 
z"/>
<path fill="#F3F6F5" opacity="1.000000" stroke="none" 
	d="
M68.488556,59.891136 
	C66.288696,59.284046 64.517311,58.721817 62.382195,58.179848 
	C60.985851,57.062599 59.953232,55.925087 59.028786,54.220695 
	C59.136963,53.653816 59.096447,53.251560 59.345707,53.022076 
	C60.037369,51.527653 60.479771,50.262714 61.116997,48.732666 
	C61.530460,47.645214 61.749107,46.822868 62.080139,45.702423 
	C62.251995,44.983833 62.311462,44.563347 62.676384,44.049713 
	C64.354782,42.374355 65.727722,40.792145 67.100662,39.209934 
	C69.938454,37.640118 72.776253,36.070301 75.819061,34.749588 
	C75.994812,41.690437 75.965530,48.382187 76.020111,55.535995 
	C76.028954,56.723839 75.953941,57.449619 75.617157,58.613991 
	C75.113197,59.273914 74.976082,59.547836 74.944031,59.874352 
	C72.935028,59.894897 70.926018,59.915443 68.488556,59.891136 
z"/>
<path fill="#16476C" opacity="1.000000" stroke="none" 
	d="
M30.639439,71.959229 
	C30.994366,73.066414 30.995449,74.133286 30.994007,75.600235 
	C28.722324,78.217575 26.551880,80.550606 24.143127,82.604118 
	C22.905163,83.659500 21.242189,84.216362 19.388500,84.999100 
	C19.003651,75.312172 19.001575,65.624657 19.000660,55.468441 
	C20.134815,54.394199 21.267811,53.788647 22.971994,52.877811 
	C25.095196,55.308666 27.304022,57.837551 29.746796,60.634285 
	C26.875793,61.924934 24.201790,62.312061 23.688751,63.576199 
	C23.123060,64.970062 24.090107,67.539024 25.219416,68.914948 
	C26.390182,70.341393 28.555347,70.951668 30.639439,71.959229 
z"/>
<path fill="#19496C" opacity="1.000000" stroke="none" 
	d="
M59.001301,33.001030 
	C56.657856,34.111454 54.033691,36.463009 52.043217,36.012810 
	C49.646435,35.470718 47.770443,32.566536 45.715374,30.635565 
	C45.397449,30.336842 45.327259,29.774464 44.752884,28.405178 
	C53.192616,28.685513 61.425701,28.814875 67.293175,21.304768 
	C68.651474,22.378199 70.163719,23.573292 70.878448,24.138126 
	C75.270821,23.894358 78.800850,23.698448 82.361855,23.500818 
	C82.399422,30.313349 79.505081,32.189289 73.662613,28.680157 
	C70.781158,26.949480 69.218697,26.643686 67.346664,29.905386 
	C66.577873,31.244877 64.161217,31.638580 61.872162,32.731518 
	C60.500557,33.000698 59.750931,33.000862 59.001301,33.001030 
z"/>
<path fill="#F1F5F4" opacity="1.000000" stroke="none" 
	d="
M53.984734,54.004620 
	C53.984734,54.004620 53.729050,54.189255 53.753563,54.344975 
	C53.394794,54.760033 53.011513,55.019375 52.076004,55.200710 
	C51.352032,55.123356 51.180286,55.124004 51.008545,55.124649 
	C48.374603,53.390079 45.740658,51.655510 43.100784,49.571121 
	C43.257103,49.172153 43.419350,49.123009 44.042435,48.941299 
	C44.802902,48.617443 44.954113,48.344067 44.956909,47.988594 
	C48.826233,45.144558 52.695560,42.300526 57.044949,39.171692 
	C57.704933,38.600361 57.884857,38.313828 58.064777,38.027290 
	C58.064777,38.027290 58.009701,37.996861 58.369202,37.999405 
	C59.365433,38.050533 60.002155,38.099117 60.441647,38.132648 
	C60.016949,39.936596 59.607861,41.674236 58.974739,43.604012 
	C58.121864,44.735443 57.493023,45.674747 56.636208,46.772835 
	C56.319698,47.281105 56.231163,47.630600 56.014320,48.149258 
	C55.886017,48.318420 55.899017,48.742859 55.668461,48.958633 
	C55.308037,49.780136 55.178173,50.385868 54.856323,51.255394 
	C54.437805,52.347668 54.211269,53.176144 53.984734,54.004620 
z"/>
<path fill="#124365" opacity="1.000000" stroke="none" 
	d="
M59.198772,43.411880 
	C59.607861,41.674236 60.016949,39.936596 60.441647,38.132648 
	C60.002155,38.099117 59.365433,38.050533 58.379456,38.029152 
	C58.325573,36.616661 58.620949,35.176968 58.958813,33.369156 
	C59.750931,33.000862 60.500557,33.000698 61.625015,33.000648 
	C63.599209,34.860798 65.198570,36.720837 66.949295,38.895405 
	C65.727722,40.792145 64.354782,42.374355 62.283119,44.010727 
	C61.058029,44.044941 60.531654,44.024986 59.811939,43.845482 
	C59.478653,43.594578 59.338715,43.503227 59.198772,43.411880 
z"/>
<path fill="#19496C" opacity="1.000000" stroke="none" 
	d="
M32.988155,34.176178 
	C35.173725,34.515427 37.024586,34.557671 38.718201,35.095264 
	C39.974163,35.493942 41.025856,36.536125 42.168541,37.291656 
	C41.988804,37.696953 41.809071,38.102249 41.629333,38.507545 
	C37.058254,38.507545 32.487171,38.507545 27.870804,38.507545 
	C27.659889,35.127964 27.659889,35.127964 32.988155,34.176178 
z"/>
<path fill="#E2EAEC" opacity="1.000000" stroke="none" 
	d="
M41.029953,45.367607 
	C39.568756,47.239140 38.254047,48.748970 36.828667,50.577492 
	C35.977924,51.685734 35.237858,52.475285 34.411480,53.356918 
	C33.103382,46.091396 33.858334,44.494118 39.287102,43.363770 
	C39.781475,43.260838 40.540379,44.428356 41.029953,45.367607 
z"/>
<path fill="#19496C" opacity="1.000000" stroke="none" 
	d="
M111.504257,27.690693 
	C112.284760,34.165417 105.666565,31.401159 103.826057,34.638126 
	C104.560738,30.301270 106.581047,27.409903 111.504257,27.690693 
z"/>
<path fill="#19496C" opacity="1.000000" stroke="none" 
	d="
M19.367226,42.997726 
	C19.008379,42.998016 19.005272,42.498753 19.006563,42.249100 
	C20.117437,41.718674 21.227022,41.437901 22.336605,41.157124 
	C22.430143,41.536007 22.523684,41.914894 22.617222,42.293777 
	C21.653505,42.528332 20.689787,42.762886 19.367226,42.997726 
z"/>
<path fill="#19496C" opacity="1.000000" stroke="none" 
	d="
M89.315300,30.502991 
	C88.977715,31.036495 88.430542,31.355970 87.883362,31.675446 
	C87.759254,31.401917 87.635147,31.128384 87.511040,30.854851 
	C88.042595,30.666222 88.574150,30.477591 89.315300,30.502991 
z"/>
<path fill="#124365" opacity="1.000000" stroke="none" 
	d="
M57.844776,38.122082 
	C57.884857,38.313828 57.704933,38.600361 57.268253,38.911575 
	C57.138725,38.630642 57.343155,38.390846 57.844776,38.122082 
z"/>
<path fill="#1B4A6A" opacity="1.000000" stroke="none" 
	d="
M44.761459,48.076942 
	C44.954113,48.344067 44.802902,48.617443 44.260464,48.810432 
	C44.135147,48.541164 44.317932,48.325554 44.761459,48.076942 
z"/>
<path fill="#DBE5E8" opacity="1.000000" stroke="none" 
	d="
M48.850986,120.189613 
	C50.247265,119.866058 51.495872,119.627884 52.898987,119.360245 
	C54.652180,123.704414 56.373291,127.969078 58.046364,132.613724 
	C57.998325,132.993698 57.555401,132.984848 57.334412,132.969238 
	C55.293541,131.015381 53.473663,129.077148 51.286026,126.775009 
	C50.738701,126.124466 50.480045,125.972084 50.142292,125.953964 
	C49.460293,124.216934 48.778294,122.479912 48.235306,120.463806 
	C48.374313,120.184723 48.703316,120.275002 48.850986,120.189613 
z"/>
<path fill="#F6F8F7" opacity="1.000000" stroke="none" 
	d="
M111.617020,116.866188 
	C109.448616,115.832336 107.570686,114.816902 105.608383,113.755836 
	C106.553848,106.090195 107.502464,98.399010 108.535202,90.025749 
	C112.222069,90.025749 116.155556,90.025749 120.546158,89.931671 
	C121.028404,92.922470 121.332550,96.038757 120.989998,99.082253 
	C120.718094,101.498009 119.654495,103.824646 118.904358,106.574280 
	C117.193581,110.021667 115.520851,113.085625 113.734863,116.489609 
	C113.050232,116.847961 112.478874,116.866280 111.617020,116.866188 
z"/>
<path fill="#E3EBEC" opacity="1.000000" stroke="none" 
	d="
M99.073120,130.340195 
	C100.252098,127.384865 101.879288,124.886902 102.663239,122.147614 
	C103.507309,119.198196 104.894592,119.046982 107.521530,120.309769 
	C108.014595,121.487144 108.687546,122.998650 108.208725,123.614113 
	C106.406662,125.930435 104.229446,127.954887 102.033691,130.367523 
	C100.966454,130.661362 100.058266,130.676331 99.073120,130.340195 
z"/>
<path fill="#18486B" opacity="1.000000" stroke="none" 
	d="
M49.733711,125.966667 
	C50.480045,125.972084 50.738701,126.124466 50.981987,126.634811 
	C48.682755,130.997604 46.319798,135.136673 43.740032,139.655533 
	C41.591492,137.686005 40.185474,136.754868 39.303761,135.465256 
	C38.698784,134.580399 38.278042,132.475555 38.707264,132.151688 
	C41.980839,129.681747 44.282501,125.392944 49.733711,125.966667 
z"/>
<path fill="#0F4061" opacity="1.000000" stroke="none" 
	d="
M75.099411,60.108444 
	C74.976082,59.547836 75.113197,59.273914 75.577385,58.978764 
	C76.026672,59.393364 76.253952,59.881783 76.481232,60.370201 
	C76.072418,60.360981 75.663612,60.351761 75.099411,60.108444 
z"/>
<path fill="#235475" opacity="1.000000" stroke="none" 
	d="
M51.073792,55.272781 
	C51.180286,55.124004 51.352032,55.123356 51.735710,55.269035 
	C51.947639,55.415367 51.539242,55.626141 51.539242,55.626141 
	C51.539242,55.626141 51.139038,55.420914 51.073792,55.272781 
z"/>
<path fill="#124365" opacity="1.000000" stroke="none" 
	d="
M56.864182,46.614056 
	C57.493023,45.674747 58.121864,44.735443 58.974739,43.604012 
	C59.338715,43.503227 59.478653,43.594578 59.853767,44.160957 
	C60.715214,45.090832 61.341484,45.545677 61.967754,46.000523 
	C61.749107,46.822868 61.530460,47.645214 60.755142,48.818481 
	C59.831131,50.530125 59.463791,51.890842 59.096451,53.251560 
	C59.096447,53.251560 59.136963,53.653816 59.024940,53.822105 
	C57.544075,53.997055 56.175236,54.003719 54.395561,54.007500 
	C54.211269,53.176144 54.437805,52.347668 55.101002,51.049759 
	C55.658115,49.967838 55.778564,49.355350 55.899017,48.742859 
	C55.899017,48.742859 55.886017,48.318420 56.222191,47.975834 
	C56.660305,47.293518 56.762245,46.953785 56.864182,46.614056 
z"/>
<path fill="#184768" opacity="1.000000" stroke="none" 
	d="
M59.345711,53.022076 
	C59.463791,51.890842 59.831131,50.530125 60.560326,49.083588 
	C60.479771,50.262714 60.037369,51.527653 59.345711,53.022076 
z"/>
<path fill="#184768" opacity="1.000000" stroke="none" 
	d="
M62.080139,45.702423 
	C61.341484,45.545677 60.715214,45.090832 60.047112,44.320511 
	C60.531654,44.024986 61.058029,44.044941 61.977661,44.103874 
	C62.311462,44.563347 62.251995,44.983833 62.080139,45.702423 
z"/>
<path fill="#184768" opacity="1.000000" stroke="none" 
	d="
M55.668461,48.958633 
	C55.778564,49.355350 55.658115,49.967838 55.292984,50.785965 
	C55.178173,50.385868 55.308037,49.780136 55.668461,48.958633 
z"/>
<path fill="#184768" opacity="1.000000" stroke="none" 
	d="
M56.636208,46.772835 
	C56.762245,46.953785 56.660305,47.293518 56.350494,47.806671 
	C56.231163,47.630600 56.319698,47.281105 56.636208,46.772835 
z"/>
</svg>